<?xml version="1.0" encoding="UTF-8" standalone="no"?>
<!-- Created with Inkscape (http://www.inkscape.org/) -->

<svg
   width="100mm"
   height="100mm"
   viewBox="0 0 100 100"
   version="1.1"
   id="svg5"
   inkscape:version="1.2.1 (9c6d41e410, 2022-07-14)"
   sodipodi:docname="default.svg"
   inkscape:export-filename="loading.png"
   inkscape:export-xdpi="25.4"
   inkscape:export-ydpi="25.4"
   xmlns:inkscape="http://www.inkscape.org/namespaces/inkscape"
   xmlns:sodipodi="http://sodipodi.sourceforge.net/DTD/sodipodi-0.dtd"
   xmlns="http://www.w3.org/2000/svg"
   xmlns:svg="http://www.w3.org/2000/svg">
  <sodipodi:namedview
     id="namedview7"
     pagecolor="#505050"
     bordercolor="#eeeeee"
     borderopacity="1"
     inkscape:showpageshadow="0"
     inkscape:pageopacity="0"
     inkscape:pagecheckerboard="0"
     inkscape:deskcolor="#505050"
     inkscape:document-units="mm"
     showgrid="false"
     inkscape:zoom="0.78127806"
     inkscape:cx="213.75232"
     inkscape:cy="357.10717"
     inkscape:window-width="1920"
     inkscape:window-height="1057"
     inkscape:window-x="-8"
     inkscape:window-y="-8"
     inkscape:window-maximized="1"
     inkscape:current-layer="layer1" />
  <defs
     id="defs2">
    <inkscape:path-effect
       effect="fillet_chamfer"
       id="path-effect5510"
       is_visible="true"
       lpeversion="1"
       nodesatellites_param="F,0,0,1,0,2.6458333,0,1 @ F,0,0,1,0,2.6458333,0,1 @ F,0,0,1,0,2.6458333,0,1 @ F,0,0,1,0,2.6458333,0,1 @ F,0,0,1,0,2.6458333,0,1 @ F,0,0,1,0,2.6458333,0,1 @ F,0,0,1,0,2.6458333,0,1 @ F,0,0,1,0,2.6458333,0,1"
       unit="px"
       method="auto"
       mode="F"
       radius="10"
       chamfer_steps="1"
       flexible="false"
       use_knot_distance="true"
       apply_no_radius="true"
       apply_with_radius="true"
       only_selected="false"
       hide_knots="false" />
  </defs>
  <g
     inkscape:label="Layer 1"
     inkscape:groupmode="layer"
     id="layer1">
    <path
       id="path5479"
       style="fill:#ffffff;stroke-width:4.99999;stroke-linecap:round;stroke-miterlimit:100;paint-order:markers fill stroke"
       d="m 50.000049,2.6458333 v 4.7082398 c 0,1.4612534 1.186073,2.6366863 2.643967,2.7318149 19.984967,1.304034 35.966159,17.285227 37.270193,37.270194 0.09513,1.457894 0.09513,3.83004 0,5.287934 -1.304034,19.984967 -17.285227,35.966159 -37.270193,37.270193 -1.457894,0.09513 -3.83004,0.09513 -5.287934,0 C 27.371115,88.610175 11.389922,72.628982 10.085888,52.644016 9.9907594,51.186122 8.8153265,50.000049 7.3540731,50.000049 H 2.6458333 c -1.4612534,0 -2.65312989,1.185533 -2.57709353,2.644641 C 1.3980572,78.153777 21.846321,98.602042 47.355408,99.93136 c 1.459108,0.07604 3.830174,0.07604 5.289282,0 25.509088,-1.329317 45.957353,-21.777582 47.28667,-47.28667 0.07604,-1.459108 0.07604,-3.830174 0,-5.289282 C 98.602042,21.846321 78.153777,1.398057 52.64469,0.06873975 51.185582,-0.00729659 50.000049,1.1845799 50.000049,2.6458333 Z"
       inkscape:path-effect="#path-effect5510"
       inkscape:original-d="M 50.000049,0 V 9.9999064 A 40,40 0 0 1 90.000191,50.000049 40,40 0 0 1 50.000049,90.000191 40,40 0 0 1 9.9999064,50.000049 H 0 A 50,50 0 0 0 50.000049,100.0001 50,50 0 0 0 100.0001,50.000049 50,50 0 0 0 50.000049,0 Z" />
  </g>
</svg>
