<?xml version="1.0" encoding="UTF-8" standalone="no"?>
<!-- Created with Inkscape (http://www.inkscape.org/) -->

<svg
   width="200mm"
   height="100mm"
   viewBox="0 0 200 100"
   version="1.1"
   id="svg5"
   inkscape:version="1.2.1 (9c6d41e410, 2022-07-14)"
   sodipodi:docname="default.svg"
   xml:space="preserve"
   inkscape:export-filename="roadcenter.png"
   inkscape:export-xdpi="25.4"
   inkscape:export-ydpi="25.4"
   xmlns:inkscape="http://www.inkscape.org/namespaces/inkscape"
   xmlns:sodipodi="http://sodipodi.sourceforge.net/DTD/sodipodi-0.dtd"
   xmlns="http://www.w3.org/2000/svg"
   xmlns:svg="http://www.w3.org/2000/svg"><sodipodi:namedview
     id="namedview7"
     pagecolor="#505050"
     bordercolor="#eeeeee"
     borderopacity="1"
     inkscape:showpageshadow="0"
     inkscape:pageopacity="0"
     inkscape:pagecheckerboard="0"
     inkscape:deskcolor="#505050"
     inkscape:document-units="mm"
     showgrid="false"
     inkscape:zoom="0.78127806"
     inkscape:cx="213.75232"
     inkscape:cy="357.10717"
     inkscape:window-width="1920"
     inkscape:window-height="1057"
     inkscape:window-x="-8"
     inkscape:window-y="-8"
     inkscape:window-maximized="1"
     inkscape:current-layer="layer1" /><defs
     id="defs2" /><g
     inkscape:label="Layer 1"
     inkscape:groupmode="layer"
     id="layer1"><path
       id="rect451-9"
       style="fill:#cccccc;stroke-width:4.99999;stroke-linecap:round;stroke-miterlimit:100;paint-order:markers fill stroke"
       d="M 94.999369,0 V 4.9996948 8.5917236 24.999508 c 0,11.079945 -8.919867,20.000329 -19.999813,20.000329 -16.606403,0 -29.97725,13.370623 -29.999202,29.971297 V 100.01198 H 55.00026 V 95.012288 91.42026 75.012476 c 0,-11.079945 8.919868,-20.00033 19.999813,-20.00033 16.620058,0 29.999717,-13.380611 29.999717,-30.000236 V 0 Z m 9.999911,95.012288 v 4.999692 h 5.1e-4 v -4.999692 z" /><rect
       style="display:none;fill:#b88100;stroke-width:4.64425;stroke-linecap:round;stroke-miterlimit:100;paint-order:markers fill stroke"
       id="rect447"
       width="10"
       height="100"
       x="95"
       y="0" /><rect
       style="display:none;fill:#b88100;stroke-width:4.99999;stroke-linecap:round;stroke-miterlimit:100;paint-order:markers fill stroke"
       id="rect449"
       width="9.9999123"
       height="100.00001"
       x="45.000168"
       y="0" /><path
       id="rect285"
       style="display:none;fill:#009100;stroke-width:9.87186;stroke-linecap:round;stroke-miterlimit:100;paint-order:markers fill stroke"
       d="M 120.00025,45.000003 V 54.99991 H 95.000222 c -22.159934,0 -40.000142,17.840208 -40.000142,40.000143 v 9.999907 9.9999 5.00023 H 45.000168 V 95.000053 c 0,-27.699918 22.300138,-50.00005 50.000054,-50.00005 z" /></g></svg>
